<svg width="30" height="30" viewBox="0 0 30 30" fill="none" xmlns="http://www.w3.org/2000/svg">
<path fill-rule="evenodd" clip-rule="evenodd" d="M9.375 5.85937C7.6913 5.85937 5.88932 6.84792 4.95478 7.46108C4.95154 7.46321 4.94569 7.46756 4.93868 7.48131C4.93083 7.49667 4.92188 7.5241 4.92188 7.56277V21.4997C4.92188 21.5711 4.95964 21.6975 5.1596 21.809C5.36744 21.9249 5.60198 21.9312 5.76038 21.8618C6.77327 21.4174 8.04619 21.0156 9.375 21.0156C11.0565 21.0156 12.6608 21.6597 13.7816 22.2409C13.7972 22.249 13.8127 22.2571 13.8281 22.2651V7.48275C13.5501 7.29902 13.1626 7.06003 12.7028 6.82159C11.7142 6.30902 10.506 5.85937 9.375 5.85937ZM16.1719 7.48275V22.2651C16.1873 22.2571 16.2028 22.249 16.2184 22.2409C17.3392 21.6597 18.9435 21.0156 20.625 21.0156C21.9538 21.0156 23.2267 21.4174 24.2396 21.8618C24.398 21.9312 24.6326 21.9249 24.8404 21.809C25.0404 21.6975 25.0781 21.5711 25.0781 21.4997V7.56277C25.0781 7.5241 25.0692 7.49668 25.0613 7.48131C25.0543 7.46756 25.0485 7.46321 25.0452 7.46108C24.1107 6.84792 22.3087 5.85937 20.625 5.85937C19.494 5.85937 18.2858 6.30902 17.2972 6.82159C16.8374 7.06003 16.4499 7.29902 16.1719 7.48275ZM14.2805 25.3L14.2796 25.2993L14.263 25.2867C14.2469 25.2746 14.2207 25.2551 14.1852 25.2294C14.1142 25.1778 14.0062 25.1013 13.8666 25.0083C13.5864 24.8215 13.1842 24.5712 12.7028 24.3216C11.7142 23.809 10.506 23.3594 9.375 23.3594C8.49429 23.3594 7.55769 23.6326 6.70197 24.008C5.78874 24.4087 4.7827 24.2825 4.01786 23.8559C3.24514 23.4248 2.57812 22.5985 2.57812 21.4997V7.56277C2.57812 6.7759 2.94248 5.97818 3.66907 5.50146C4.65442 4.85497 6.95557 3.51562 9.375 3.51562C11.0565 3.51562 12.6608 4.15973 13.7816 4.74091C14.2656 4.99187 14.6808 5.24239 15 5.44875C15.3192 5.24239 15.7344 4.99187 16.2184 4.74091C17.3392 4.15973 18.9435 3.51562 20.625 3.51562C23.0444 3.51562 25.3456 4.85497 26.3309 5.50146C27.0575 5.97818 27.4219 6.7759 27.4219 7.56277V21.4997C27.4219 22.5985 26.7549 23.4248 25.9821 23.8559C25.2173 24.2825 24.2113 24.4087 23.298 24.008C22.4423 23.6326 21.5057 23.3594 20.625 23.3594C19.494 23.3594 18.2858 23.809 17.2972 24.3216C16.8158 24.5712 16.4136 24.8215 16.1334 25.0083C15.9938 25.1013 15.8858 25.1778 15.8148 25.2294C15.7793 25.2551 15.7531 25.2746 15.737 25.2867L15.7204 25.2993L15.7195 25.3L15.7187 25.3006L15.718 25.3012L15 25.8596L14.282 25.3012L14.2813 25.3006L14.2805 25.3Z" fill="#F0F2F6" style="fill:#F0F2F6;fill:color(display-p3 0.9412 0.9490 0.9647);fill-opacity:1;"/>
</svg>
