<svg width="43" height="44" viewBox="0 0 43 44" fill="none" xmlns="http://www.w3.org/2000/svg">
<g id="Moon" clip-path="url(#clip0_1181_208)">
<path id="Icon" d="M30.0967 29.5642C28.6579 31.2045 26.7817 32.4011 24.6877 33.014C22.5936 33.6269 20.3683 33.6308 18.2722 33.0252C16.176 32.4195 14.2957 31.2294 12.8512 29.5941C11.4067 27.9588 10.4578 25.9459 10.1156 23.791C9.77335 21.6361 10.0519 19.4283 10.9186 17.4259C11.7854 15.4236 13.2045 13.7095 15.0098 12.4842C16.8152 11.2589 18.9322 10.5731 21.1131 10.5071C23.2941 10.441 25.4487 10.9975 27.3249 12.1113C25.2845 12.7567 23.5436 14.113 22.4188 15.9335C21.2939 17.754 20.8599 19.9178 21.1955 22.0313C21.5312 24.1448 22.6143 26.0676 24.2478 27.45C25.8814 28.8325 27.9568 29.5827 30.0967 29.5642Z" stroke="white" style="stroke:white;stroke-opacity:1;" stroke-width="4" stroke-linecap="round" stroke-linejoin="round"/>
</g>
<defs>
<clipPath id="clip0_1181_208">
<rect width="30.633" height="30.633" fill="white" style="fill:white;fill-opacity:1;" transform="translate(17.9951 0.6073) rotate(35.9757)"/>
</clipPath>
</defs>
</svg>
