<svg width="30" height="30" viewBox="0 0 30 30" fill="none" xmlns="http://www.w3.org/2000/svg">
<g id="20 / General / Calendar">
<g id="Union">
<path d="M10 16.25C10.6904 16.25 11.25 15.6904 11.25 15C11.25 14.3096 10.6904 13.75 10 13.75C9.30964 13.75 8.75 14.3096 8.75 15C8.75 15.6904 9.30964 16.25 10 16.25Z" fill="#F0F2F6" style="fill:#F0F2F6;fill:color(display-p3 0.9412 0.9490 0.9647);fill-opacity:1;"/>
<path d="M16.25 15C16.25 15.6904 15.6904 16.25 15 16.25C14.3096 16.25 13.75 15.6904 13.75 15C13.75 14.3096 14.3096 13.75 15 13.75C15.6904 13.75 16.25 14.3096 16.25 15Z" fill="#F0F2F6" style="fill:#F0F2F6;fill:color(display-p3 0.9412 0.9490 0.9647);fill-opacity:1;"/>
<path d="M20 16.25C20.6904 16.25 21.25 15.6904 21.25 15C21.25 14.3096 20.6904 13.75 20 13.75C19.3096 13.75 18.75 14.3096 18.75 15C18.75 15.6904 19.3096 16.25 20 16.25Z" fill="#F0F2F6" style="fill:#F0F2F6;fill:color(display-p3 0.9412 0.9490 0.9647);fill-opacity:1;"/>
<path d="M11.25 20C11.25 20.6904 10.6904 21.25 10 21.25C9.30964 21.25 8.75 20.6904 8.75 20C8.75 19.3096 9.30964 18.75 10 18.75C10.6904 18.75 11.25 19.3096 11.25 20Z" fill="#F0F2F6" style="fill:#F0F2F6;fill:color(display-p3 0.9412 0.9490 0.9647);fill-opacity:1;"/>
<path d="M15 21.25C15.6904 21.25 16.25 20.6904 16.25 20C16.25 19.3096 15.6904 18.75 15 18.75C14.3096 18.75 13.75 19.3096 13.75 20C13.75 20.6904 14.3096 21.25 15 21.25Z" fill="#F0F2F6" style="fill:#F0F2F6;fill:color(display-p3 0.9412 0.9490 0.9647);fill-opacity:1;"/>
<path fill-rule="evenodd" clip-rule="evenodd" d="M10 3.75C10 3.05964 9.44036 2.5 8.75 2.5C8.05964 2.5 7.5 3.05964 7.5 3.75H5C3.61929 3.75 2.5 4.86929 2.5 6.25V23.75C2.5 25.1307 3.61929 26.25 5 26.25H25C26.3807 26.25 27.5 25.1307 27.5 23.75V6.25C27.5 4.86929 26.3807 3.75 25 3.75H22.5C22.5 3.05964 21.9404 2.5 21.25 2.5C20.5596 2.5 20 3.05964 20 3.75H10ZM5 8.75V6.25H25V8.75H5ZM5 11.25V23.75H17.7145L25 16.4645V11.25H5ZM25 20L21.25 23.75H25V20Z" fill="#F0F2F6" style="fill:#F0F2F6;fill:color(display-p3 0.9412 0.9490 0.9647);fill-opacity:1;"/>
</g>
</g>
</svg>
