<svg width="18" height="14" viewBox="0 0 18 14" fill="none" xmlns="http://www.w3.org/2000/svg">
<path id="Wifi" fill-rule="evenodd" clip-rule="evenodd" d="M9.18645 3.30213C11.6736 3.30223 14.0656 4.22432 15.8681 5.8778C16.0038 6.00545 16.2208 6.00384 16.3544 5.87419L17.6519 4.61072C17.7196 4.54496 17.7574 4.45588 17.7568 4.3632C17.7562 4.27052 17.7174 4.18187 17.6489 4.11688C12.9179 -0.257833 5.45421 -0.257833 0.723199 4.11688C0.654667 4.18183 0.615783 4.27044 0.615151 4.36313C0.614519 4.45581 0.652191 4.54491 0.719832 4.61072L2.0177 5.87419C2.15129 6.00404 2.36842 6.00565 2.50407 5.8778C4.30681 4.22421 6.69909 3.30212 9.18645 3.30213ZM9.18309 7.5224C10.5404 7.52232 11.8493 8.03406 12.8554 8.95819C12.9915 9.08934 13.2059 9.0865 13.3385 8.95178L14.6258 7.63247C14.6936 7.56327 14.7312 7.46939 14.7302 7.37184C14.7292 7.27429 14.6898 7.18121 14.6206 7.11342C11.5568 4.22257 6.81202 4.22257 3.74819 7.11342C3.67898 7.18121 3.6395 7.27434 3.63859 7.37192C3.63768 7.4695 3.67543 7.56337 3.74336 7.63247L5.03027 8.95178C5.16292 9.0865 5.37729 9.08934 5.51337 8.95819C6.51882 8.03467 7.82667 7.52297 9.18309 7.5224ZM11.7075 10.316C11.7094 10.4213 11.6724 10.5229 11.6051 10.5967L9.42841 13.0514C9.36461 13.1236 9.27761 13.1642 9.18684 13.1642C9.09608 13.1642 9.00908 13.1236 8.94528 13.0514L6.76825 10.5967C6.701 10.5228 6.664 10.4212 6.66599 10.3159C6.66799 10.2105 6.7088 10.1108 6.77878 10.0401C8.16888 8.72625 10.2048 8.72625 11.5949 10.0401C11.6648 10.1108 11.7056 10.2106 11.7075 10.316Z" fill="white" style="fill:white;fill-opacity:1;"/>
</svg>
