<svg width="58" height="67" viewBox="0 0 58 67" fill="none" xmlns="http://www.w3.org/2000/svg">
<path id="Arrow 1" d="M5.35761 1.14483C4.33303 -0.157245 2.4469 -0.382196 1.14483 0.642387C-0.157245 1.66697 -0.382196 3.5531 0.642387 4.85517L5.35761 1.14483ZM50.6447 66.9789C52.2899 67.1751 53.7827 66.0005 53.9789 64.3553L57.1764 37.5453C57.3726 35.9001 56.198 34.4073 54.5528 34.2111C52.9076 34.0149 51.4149 35.1895 51.2186 36.8347L48.3764 60.6658L24.5453 57.8236C22.9001 57.6274 21.4073 58.802 21.2111 60.4472C21.0149 62.0924 22.1895 63.5852 23.8347 63.7814L50.6447 66.9789ZM0.642387 4.85517L48.6424 65.8552L53.3576 62.1448L5.35761 1.14483L0.642387 4.85517Z" fill="#1D3B6F" style="fill:#1D3B6F;fill:color(display-p3 0.1137 0.2314 0.4353);fill-opacity:1;"/>
</svg>
