<svg width="18" height="18" viewBox="0 0 18 18" fill="none" xmlns="http://www.w3.org/2000/svg">
<path d="M12.96 12.96C11.8204 13.8287 10.4328 14.3099 9.00002 14.3334C4.33335 14.3334 1.66669 9.00002 1.66669 9.00002C2.49595 7.45462 3.64611 6.10443 5.04002 5.04002M7.60002 3.82669C8.05891 3.71927 8.52873 3.66558 9.00002 3.66669C13.6667 3.66669 16.3334 9.00002 16.3334 9.00002C15.9287 9.75709 15.4461 10.4698 14.8934 11.1267M10.4134 10.4134C10.2303 10.6099 10.0095 10.7675 9.76412 10.8768C9.51879 10.9861 9.25395 11.0449 8.98541 11.0496C8.71687 11.0543 8.45013 11.0049 8.20109 10.9043C7.95206 10.8038 7.72583 10.654 7.53592 10.4641C7.346 10.2742 7.19628 10.048 7.09569 9.79895C6.9951 9.54991 6.9457 9.28317 6.95044 9.01463C6.95518 8.74609 7.01396 8.48125 7.12327 8.23592C7.23258 7.99059 7.39019 7.76979 7.58669 7.58669M1.66669 1.66669L16.3334 16.3334" stroke="#AAAAAA" style="stroke:#AAAAAA;stroke:color(display-p3 0.6667 0.6667 0.6667);stroke-opacity:1;" stroke-width="1.6" stroke-linecap="round" stroke-linejoin="round"/>
</svg>
