<svg width="20" height="14" viewBox="0 0 20 14" fill="none" xmlns="http://www.w3.org/2000/svg">
<path id="Cellular Connection" fill-rule="evenodd" clip-rule="evenodd" d="M19.6152 2.03301C19.6152 1.39996 19.1376 0.88678 18.5485 0.88678H17.4818C16.8927 0.88678 16.4152 1.39996 16.4152 2.03301V11.967C16.4152 12.6 16.8927 13.1132 17.4818 13.1132H18.5485C19.1376 13.1132 19.6152 12.6 19.6152 11.967V2.03301ZM12.181 3.33206H13.2477C13.8368 3.33206 14.3144 3.85756 14.3144 4.5058V11.9395C14.3144 12.5877 13.8368 13.1132 13.2477 13.1132H12.181C11.5919 13.1132 11.1144 12.5877 11.1144 11.9395V4.5058C11.1144 3.85756 11.5919 3.33206 12.181 3.33206ZM7.84928 5.98111H6.78261C6.19351 5.98111 5.71594 6.5133 5.71594 7.16979V11.9245C5.71594 12.581 6.19351 13.1132 6.78261 13.1132H7.84928C8.43838 13.1132 8.91594 12.581 8.91594 11.9245V7.16979C8.91594 6.5133 8.43838 5.98111 7.84928 5.98111ZM2.54849 8.4264H1.48183C0.892724 8.4264 0.415161 8.95099 0.415161 9.5981V11.9415C0.415161 12.5886 0.892724 13.1132 1.48183 13.1132H2.54849C3.1376 13.1132 3.61516 12.5886 3.61516 11.9415V9.5981C3.61516 8.95099 3.1376 8.4264 2.54849 8.4264Z" fill="white" style="fill:white;fill-opacity:1;"/>
</svg>
